<mxfile host="app.diagrams.net" modified="2021-08-15T10:51:28.155Z" agent="5.0 (Windows NT 10.0; Win64; x64) AppleWebKit/537.36 (KHTML, like Gecko) Chrome/92.0.4515.131 Safari/537.36" etag="rJyjx7W4mgNu06qnerEX" version="14.7.7" type="github">
  <diagram id="bKmbKSy0-rXser7ZJCzn" name="Page-1">
    <mxGraphModel dx="494" dy="1360" grid="1" gridSize="10" guides="1" tooltips="1" connect="1" arrows="1" fold="1" page="1" pageScale="1" pageWidth="850" pageHeight="1100" math="0" shadow="0">
      <root>
        <mxCell id="0" />
        <mxCell id="1" parent="0" />
        <mxCell id="CBsjdet6Qtw0OJ5Jwnp9-1" value="" style="rounded=0;whiteSpace=wrap;html=1;" vertex="1" parent="1">
          <mxGeometry x="450" y="160" width="270" height="230" as="geometry" />
        </mxCell>
        <mxCell id="CBsjdet6Qtw0OJ5Jwnp9-2" style="edgeStyle=orthogonalEdgeStyle;rounded=0;orthogonalLoop=1;jettySize=auto;html=1;strokeColor=#66FFFF;exitX=0.5;exitY=1;exitDx=0;exitDy=0;strokeWidth=2;entryX=0.5;entryY=0;entryDx=0;entryDy=0;" edge="1" parent="1" source="CBsjdet6Qtw0OJ5Jwnp9-29" target="CBsjdet6Qtw0OJ5Jwnp9-22">
          <mxGeometry relative="1" as="geometry">
            <Array as="points">
              <mxPoint x="536" y="130" />
              <mxPoint x="536" y="130" />
            </Array>
            <mxPoint x="635" y="23" as="sourcePoint" />
            <mxPoint x="715" y="37" as="targetPoint" />
          </mxGeometry>
        </mxCell>
        <mxCell id="CBsjdet6Qtw0OJ5Jwnp9-3" value="P&lt;sup&gt;G&lt;/sup&gt;&lt;sub&gt;B&lt;/sub&gt;" style="edgeLabel;html=1;align=center;verticalAlign=middle;resizable=0;points=[];" vertex="1" connectable="0" parent="CBsjdet6Qtw0OJ5Jwnp9-2">
          <mxGeometry x="-0.013" y="-1" relative="1" as="geometry">
            <mxPoint as="offset" />
          </mxGeometry>
        </mxCell>
        <mxCell id="CBsjdet6Qtw0OJ5Jwnp9-4" style="edgeStyle=orthogonalEdgeStyle;rounded=0;orthogonalLoop=1;jettySize=auto;html=1;fillColor=#1ba1e2;strokeColor=#006EAF;strokeWidth=2;entryX=1;entryY=0.5;entryDx=0;entryDy=0;exitX=1;exitY=0.5;exitDx=0;exitDy=0;" edge="1" parent="1" source="CBsjdet6Qtw0OJ5Jwnp9-6" target="CBsjdet6Qtw0OJ5Jwnp9-29">
          <mxGeometry relative="1" as="geometry">
            <mxPoint x="640" y="93" as="targetPoint" />
            <Array as="points">
              <mxPoint x="580" y="-2" />
              <mxPoint x="580" y="123" />
              <mxPoint x="549" y="123" />
            </Array>
          </mxGeometry>
        </mxCell>
        <mxCell id="CBsjdet6Qtw0OJ5Jwnp9-5" value="P&lt;sup&gt;UG&lt;/sup&gt;&lt;sub&gt;B&lt;/sub&gt;" style="edgeLabel;html=1;align=center;verticalAlign=middle;resizable=0;points=[];" vertex="1" connectable="0" parent="CBsjdet6Qtw0OJ5Jwnp9-4">
          <mxGeometry x="-0.6501" y="-1" relative="1" as="geometry">
            <mxPoint y="16" as="offset" />
          </mxGeometry>
        </mxCell>
        <mxCell id="CBsjdet6Qtw0OJ5Jwnp9-6" value="UTILITY&lt;br&gt;GRID" style="rounded=0;whiteSpace=wrap;html=1;fontSize=12;" vertex="1" parent="1">
          <mxGeometry x="495.69" y="-30" width="54.5" height="55.5" as="geometry" />
        </mxCell>
        <mxCell id="CBsjdet6Qtw0OJ5Jwnp9-7" style="edgeStyle=orthogonalEdgeStyle;rounded=0;orthogonalLoop=1;jettySize=auto;html=1;exitX=1;exitY=0.5;exitDx=0;exitDy=0;strokeColor=#97D077;strokeWidth=2;entryX=0;entryY=0.5;entryDx=0;entryDy=0;" edge="1" parent="1" source="CBsjdet6Qtw0OJ5Jwnp9-9" target="CBsjdet6Qtw0OJ5Jwnp9-10">
          <mxGeometry relative="1" as="geometry">
            <Array as="points" />
          </mxGeometry>
        </mxCell>
        <mxCell id="CBsjdet6Qtw0OJ5Jwnp9-8" value="P&lt;sup&gt;ES&lt;/sup&gt;&lt;sub&gt;EL&lt;/sub&gt;" style="edgeLabel;html=1;align=center;verticalAlign=middle;resizable=0;points=[];" vertex="1" connectable="0" parent="CBsjdet6Qtw0OJ5Jwnp9-7">
          <mxGeometry x="-0.0099" y="1" relative="1" as="geometry">
            <mxPoint as="offset" />
          </mxGeometry>
        </mxCell>
        <mxCell id="CBsjdet6Qtw0OJ5Jwnp9-9" value="Electrical Storage&lt;br&gt;SoC" style="rounded=0;whiteSpace=wrap;html=1;" vertex="1" parent="1">
          <mxGeometry x="490.30999999999995" y="240" width="58.38" height="50" as="geometry" />
        </mxCell>
        <mxCell id="CBsjdet6Qtw0OJ5Jwnp9-10" value="&lt;font style=&quot;font-size: 12px&quot;&gt;Electrical &lt;br&gt;Load&lt;br&gt;P&lt;sub&gt;EL&lt;/sub&gt;&lt;/font&gt;" style="shape=trapezoid;perimeter=trapezoidPerimeter;whiteSpace=wrap;html=1;fixedSize=1;fontSize=15;" vertex="1" parent="1">
          <mxGeometry x="600" y="240" width="110" height="50" as="geometry" />
        </mxCell>
        <mxCell id="CBsjdet6Qtw0OJ5Jwnp9-11" style="edgeStyle=orthogonalEdgeStyle;rounded=0;orthogonalLoop=1;jettySize=auto;html=1;exitX=0;exitY=0.5;exitDx=0;exitDy=0;entryX=0;entryY=0.5;entryDx=0;entryDy=0;strokeColor=#FF9933;strokeWidth=2;" edge="1" parent="1" source="CBsjdet6Qtw0OJ5Jwnp9-17" target="CBsjdet6Qtw0OJ5Jwnp9-25">
          <mxGeometry relative="1" as="geometry" />
        </mxCell>
        <mxCell id="CBsjdet6Qtw0OJ5Jwnp9-12" value="P&lt;sup&gt;PV&lt;/sup&gt;&lt;sub&gt;G&lt;/sub&gt;" style="edgeLabel;html=1;align=center;verticalAlign=middle;resizable=0;points=[];" vertex="1" connectable="0" parent="CBsjdet6Qtw0OJ5Jwnp9-11">
          <mxGeometry x="-0.1439" y="-1" relative="1" as="geometry">
            <mxPoint as="offset" />
          </mxGeometry>
        </mxCell>
        <mxCell id="CBsjdet6Qtw0OJ5Jwnp9-13" style="edgeStyle=orthogonalEdgeStyle;rounded=0;orthogonalLoop=1;jettySize=auto;html=1;exitX=0.5;exitY=0;exitDx=0;exitDy=0;strokeColor=#FF9933;strokeWidth=2;entryX=0.5;entryY=1;entryDx=0;entryDy=0;" edge="1" parent="1" source="CBsjdet6Qtw0OJ5Jwnp9-17" target="CBsjdet6Qtw0OJ5Jwnp9-9">
          <mxGeometry relative="1" as="geometry">
            <Array as="points" />
            <mxPoint x="520" y="290" as="targetPoint" />
          </mxGeometry>
        </mxCell>
        <mxCell id="CBsjdet6Qtw0OJ5Jwnp9-14" value="P&lt;sup&gt;PV&lt;/sup&gt;&lt;sub&gt;ES&lt;/sub&gt;" style="edgeLabel;html=1;align=center;verticalAlign=middle;resizable=0;points=[];" vertex="1" connectable="0" parent="CBsjdet6Qtw0OJ5Jwnp9-13">
          <mxGeometry x="-0.1742" relative="1" as="geometry">
            <mxPoint x="-10" as="offset" />
          </mxGeometry>
        </mxCell>
        <mxCell id="CBsjdet6Qtw0OJ5Jwnp9-15" style="edgeStyle=orthogonalEdgeStyle;rounded=0;orthogonalLoop=1;jettySize=auto;html=1;exitX=1;exitY=0.5;exitDx=0;exitDy=0;strokeColor=#FF9933;strokeWidth=2;entryX=0.5;entryY=1;entryDx=0;entryDy=0;" edge="1" parent="1" source="CBsjdet6Qtw0OJ5Jwnp9-17" target="CBsjdet6Qtw0OJ5Jwnp9-10">
          <mxGeometry relative="1" as="geometry">
            <mxPoint x="562" y="263" as="targetPoint" />
            <Array as="points" />
          </mxGeometry>
        </mxCell>
        <mxCell id="CBsjdet6Qtw0OJ5Jwnp9-16" value="P&lt;sup&gt;PV&lt;/sup&gt;&lt;sub&gt;EL&lt;/sub&gt;" style="edgeLabel;html=1;align=center;verticalAlign=middle;resizable=0;points=[];" vertex="1" connectable="0" parent="CBsjdet6Qtw0OJ5Jwnp9-15">
          <mxGeometry x="-0.3171" y="-1" relative="1" as="geometry">
            <mxPoint x="8" y="-26" as="offset" />
          </mxGeometry>
        </mxCell>
        <mxCell id="CBsjdet6Qtw0OJ5Jwnp9-17" value="P&lt;sub&gt;PV&lt;/sub&gt;" style="shape=process;whiteSpace=wrap;html=1;backgroundOutline=1;fontSize=15;" vertex="1" parent="1">
          <mxGeometry x="515.5000000000001" y="335" width="99" height="50.25" as="geometry" />
        </mxCell>
        <mxCell id="CBsjdet6Qtw0OJ5Jwnp9-18" style="edgeStyle=orthogonalEdgeStyle;rounded=0;orthogonalLoop=1;jettySize=auto;html=1;strokeColor=#3333FF;strokeWidth=2;startArrow=none;exitX=1;exitY=0.5;exitDx=0;exitDy=0;entryX=0.5;entryY=0;entryDx=0;entryDy=0;" edge="1" parent="1" source="CBsjdet6Qtw0OJ5Jwnp9-22" target="CBsjdet6Qtw0OJ5Jwnp9-10">
          <mxGeometry relative="1" as="geometry">
            <Array as="points" />
            <mxPoint x="500" y="193" as="sourcePoint" />
          </mxGeometry>
        </mxCell>
        <mxCell id="CBsjdet6Qtw0OJ5Jwnp9-19" value="P&lt;sup&gt;G&lt;/sup&gt;&lt;sub&gt;EL&lt;/sub&gt;" style="edgeLabel;html=1;align=center;verticalAlign=middle;resizable=0;points=[];" vertex="1" connectable="0" parent="CBsjdet6Qtw0OJ5Jwnp9-18">
          <mxGeometry x="0.0544" y="-1" relative="1" as="geometry">
            <mxPoint x="-35" y="-1" as="offset" />
          </mxGeometry>
        </mxCell>
        <mxCell id="CBsjdet6Qtw0OJ5Jwnp9-20" style="edgeStyle=orthogonalEdgeStyle;rounded=0;orthogonalLoop=1;jettySize=auto;html=1;exitX=0.5;exitY=1;exitDx=0;exitDy=0;strokeColor=#3333FF;strokeWidth=2;entryX=0.75;entryY=0;entryDx=0;entryDy=0;" edge="1" parent="1" source="CBsjdet6Qtw0OJ5Jwnp9-22" target="CBsjdet6Qtw0OJ5Jwnp9-9">
          <mxGeometry relative="1" as="geometry">
            <mxPoint x="365.5" y="299" as="targetPoint" />
          </mxGeometry>
        </mxCell>
        <mxCell id="CBsjdet6Qtw0OJ5Jwnp9-21" value="P&lt;sup&gt;G&lt;/sup&gt;&lt;sub&gt;ES&lt;/sub&gt;" style="edgeLabel;html=1;align=center;verticalAlign=middle;resizable=0;points=[];" vertex="1" connectable="0" parent="CBsjdet6Qtw0OJ5Jwnp9-20">
          <mxGeometry x="-0.3244" relative="1" as="geometry">
            <mxPoint as="offset" />
          </mxGeometry>
        </mxCell>
        <mxCell id="CBsjdet6Qtw0OJ5Jwnp9-23" style="edgeStyle=orthogonalEdgeStyle;rounded=0;orthogonalLoop=1;jettySize=auto;html=1;strokeColor=#660000;entryX=0.5;entryY=1;entryDx=0;entryDy=0;strokeWidth=2;exitX=0.501;exitY=0;exitDx=0;exitDy=0;exitPerimeter=0;" edge="1" parent="1" source="CBsjdet6Qtw0OJ5Jwnp9-25" target="CBsjdet6Qtw0OJ5Jwnp9-34">
          <mxGeometry relative="1" as="geometry">
            <Array as="points">
              <mxPoint x="503" y="150" />
              <mxPoint x="503" y="125" />
            </Array>
            <mxPoint x="645" y="69" as="targetPoint" />
            <mxPoint x="720" y="80" as="sourcePoint" />
          </mxGeometry>
        </mxCell>
        <mxCell id="CBsjdet6Qtw0OJ5Jwnp9-24" value="P&lt;sup&gt;G&lt;/sup&gt;&lt;sub&gt;S&lt;/sub&gt;" style="edgeLabel;html=1;align=center;verticalAlign=middle;resizable=0;points=[];" vertex="1" connectable="0" parent="CBsjdet6Qtw0OJ5Jwnp9-23">
          <mxGeometry x="-0.393" y="-1" relative="1" as="geometry">
            <mxPoint x="-1" y="1" as="offset" />
          </mxGeometry>
        </mxCell>
        <mxCell id="CBsjdet6Qtw0OJ5Jwnp9-25" value="" style="ellipse;whiteSpace=wrap;html=1;aspect=fixed;" vertex="1" parent="1">
          <mxGeometry x="490.31" y="170" width="25" height="25" as="geometry" />
        </mxCell>
        <mxCell id="CBsjdet6Qtw0OJ5Jwnp9-26" style="edgeStyle=orthogonalEdgeStyle;rounded=0;orthogonalLoop=1;jettySize=auto;html=1;exitX=0.25;exitY=0;exitDx=0;exitDy=0;entryX=0.5;entryY=1;entryDx=0;entryDy=0;strokeColor=#97D077;strokeWidth=2;" edge="1" parent="1" source="CBsjdet6Qtw0OJ5Jwnp9-9" target="CBsjdet6Qtw0OJ5Jwnp9-25">
          <mxGeometry relative="1" as="geometry">
            <mxPoint x="322.5" y="299" as="sourcePoint" />
          </mxGeometry>
        </mxCell>
        <mxCell id="CBsjdet6Qtw0OJ5Jwnp9-27" value="P&lt;sup&gt;ES&lt;/sup&gt;&lt;sub&gt;G&lt;/sub&gt;" style="edgeLabel;html=1;align=center;verticalAlign=middle;resizable=0;points=[];" vertex="1" connectable="0" parent="CBsjdet6Qtw0OJ5Jwnp9-26">
          <mxGeometry x="-0.2909" y="-1" relative="1" as="geometry">
            <mxPoint as="offset" />
          </mxGeometry>
        </mxCell>
        <mxCell id="CBsjdet6Qtw0OJ5Jwnp9-28" value="PROSUMER" style="text;html=1;align=center;verticalAlign=middle;resizable=0;points=[];autosize=1;fontStyle=1" vertex="1" parent="1">
          <mxGeometry x="630" y="370" width="90" height="20" as="geometry" />
        </mxCell>
        <mxCell id="CBsjdet6Qtw0OJ5Jwnp9-29" value="" style="ellipse;whiteSpace=wrap;html=1;aspect=fixed;" vertex="1" parent="1">
          <mxGeometry x="523.69" y="110" width="25" height="25" as="geometry" />
        </mxCell>
        <mxCell id="CBsjdet6Qtw0OJ5Jwnp9-30" style="edgeStyle=orthogonalEdgeStyle;rounded=0;orthogonalLoop=1;jettySize=auto;html=1;entryX=0.25;entryY=1;entryDx=0;entryDy=0;fillColor=#a20025;strokeColor=#6F0000;strokeWidth=2;" edge="1" parent="1" source="CBsjdet6Qtw0OJ5Jwnp9-34" target="CBsjdet6Qtw0OJ5Jwnp9-37">
          <mxGeometry relative="1" as="geometry" />
        </mxCell>
        <mxCell id="CBsjdet6Qtw0OJ5Jwnp9-31" value="P&lt;sup&gt;CG&lt;/sup&gt;&lt;sub&gt;S&lt;/sub&gt;" style="edgeLabel;html=1;align=center;verticalAlign=middle;resizable=0;points=[];" vertex="1" connectable="0" parent="CBsjdet6Qtw0OJ5Jwnp9-30">
          <mxGeometry x="0.273" y="1" relative="1" as="geometry">
            <mxPoint x="4" y="11" as="offset" />
          </mxGeometry>
        </mxCell>
        <mxCell id="CBsjdet6Qtw0OJ5Jwnp9-32" style="edgeStyle=orthogonalEdgeStyle;rounded=0;orthogonalLoop=1;jettySize=auto;html=1;fillColor=#a20025;strokeColor=#6F0000;strokeWidth=2;exitX=0;exitY=0.5;exitDx=0;exitDy=0;entryX=0;entryY=0.5;entryDx=0;entryDy=0;" edge="1" parent="1" target="CBsjdet6Qtw0OJ5Jwnp9-6">
          <mxGeometry relative="1" as="geometry">
            <mxPoint x="486.6" y="134.95" as="sourcePoint" />
            <mxPoint x="490.2900000000001" y="-9.8" as="targetPoint" />
            <Array as="points">
              <mxPoint x="456" y="135" />
              <mxPoint x="456" y="-2" />
              <mxPoint x="490" y="-2" />
            </Array>
          </mxGeometry>
        </mxCell>
        <mxCell id="CBsjdet6Qtw0OJ5Jwnp9-33" value="P&lt;sup&gt;UG&lt;/sup&gt;&lt;sub&gt;S&lt;/sub&gt;" style="edgeLabel;html=1;align=center;verticalAlign=middle;resizable=0;points=[];" vertex="1" connectable="0" parent="CBsjdet6Qtw0OJ5Jwnp9-32">
          <mxGeometry x="0.0044" y="2" relative="1" as="geometry">
            <mxPoint x="6" y="-41" as="offset" />
          </mxGeometry>
        </mxCell>
        <mxCell id="CBsjdet6Qtw0OJ5Jwnp9-34" value="" style="ellipse;whiteSpace=wrap;html=1;aspect=fixed;" vertex="1" parent="1">
          <mxGeometry x="490.5" y="110" width="25" height="25" as="geometry" />
        </mxCell>
        <mxCell id="CBsjdet6Qtw0OJ5Jwnp9-35" style="edgeStyle=orthogonalEdgeStyle;rounded=0;orthogonalLoop=1;jettySize=auto;html=1;entryX=0.5;entryY=0;entryDx=0;entryDy=0;fillColor=#1ba1e2;strokeColor=#006EAF;strokeWidth=2;exitX=0.75;exitY=1;exitDx=0;exitDy=0;" edge="1" parent="1" source="CBsjdet6Qtw0OJ5Jwnp9-37" target="CBsjdet6Qtw0OJ5Jwnp9-29">
          <mxGeometry relative="1" as="geometry" />
        </mxCell>
        <mxCell id="CBsjdet6Qtw0OJ5Jwnp9-36" value="P&lt;sup&gt;CG&lt;/sup&gt;&lt;sub&gt;B&lt;/sub&gt;" style="edgeLabel;html=1;align=center;verticalAlign=middle;resizable=0;points=[];" vertex="1" connectable="0" parent="CBsjdet6Qtw0OJ5Jwnp9-35">
          <mxGeometry x="-0.2926" y="-1" relative="1" as="geometry">
            <mxPoint x="-2" as="offset" />
          </mxGeometry>
        </mxCell>
        <mxCell id="CBsjdet6Qtw0OJ5Jwnp9-37" value="COMMUNITY&lt;br&gt;GRID" style="rounded=0;whiteSpace=wrap;html=1;fontSize=12;" vertex="1" parent="1">
          <mxGeometry x="481.25" y="30" width="79.5" height="50" as="geometry" />
        </mxCell>
        <mxCell id="CBsjdet6Qtw0OJ5Jwnp9-22" value="" style="ellipse;whiteSpace=wrap;html=1;aspect=fixed;" vertex="1" parent="1">
          <mxGeometry x="523.69" y="170" width="25" height="25" as="geometry" />
        </mxCell>
      </root>
    </mxGraphModel>
  </diagram>
</mxfile>
